HIERARCHY
ROOT Hips
{
	OFFSET 0.000000 0.000000 0.000000
	CHANNELS 6 Xposition Yposition Zposition Xrotation Yrotation Zrotation
	JOINT LeftUpLeg_virtual
	{
		OFFSET 0.000000 0.000000 0.000000
		CHANNELS 3 Xrotation Yrotation Zrotation
		JOINT LeftUpLeg
		{
			OFFSET 10.205400 -3.823500 0.155100
			CHANNELS 3 Xrotation Yrotation Zrotation
			JOINT LeftLeg
			{
				OFFSET 0.708757 -12.982077 0.567790
				CHANNELS 3 Xrotation Yrotation Zrotation
				JOINT LeftFoot
				{
					OFFSET -0.708756 -10.717838 -2.184338
					CHANNELS 3 Xrotation Yrotation Zrotation
					JOINT LeftToeBase
					{
						OFFSET 0.108149 -7.191104 7.560241
						CHANNELS 3 Xrotation Yrotation Zrotation
						JOINT LeftToe_End
						{
							OFFSET 0.070230 0.081724 4.490308
							CHANNELS 3 Xrotation Yrotation Zrotation
							End Site
							{
								OFFSET 0 0 0
							}
						}
					}
				}
			}
		}
	}
	JOINT RightUpLeg_virtual
	{
		OFFSET 0.000000 0.000000 0.000000
		CHANNELS 3 Xrotation Yrotation Zrotation
		JOINT RightUpLeg
		{
			OFFSET -10.205400 -3.823500 0.005500
			CHANNELS 3 Xrotation Yrotation Zrotation
			JOINT RightLeg
			{
				OFFSET -0.708756 -12.982134 0.610632
				CHANNELS 3 Xrotation Yrotation Zrotation
				JOINT RightFoot
				{
					OFFSET 0.708754 -10.717769 -1.945823
					CHANNELS 3 Xrotation Yrotation Zrotation
					JOINT RightToeBase
					{
						OFFSET -0.108140 -7.191069 7.372968
						CHANNELS 3 Xrotation Yrotation Zrotation
						JOINT RightToe_End
						{
							OFFSET -0.070227 0.081735 4.479403
							CHANNELS 3 Xrotation Yrotation Zrotation
							End Site
							{
								OFFSET 0 0 0
							}
						}
					}
				}
			}
		}
	}
	JOINT Spine_virtual
	{
		OFFSET 0.000000 0.000000 0.000000
		CHANNELS 3 Xrotation Yrotation Zrotation
		JOINT Spine
		{
			OFFSET 0.000000 6.876099 0.125700
			CHANNELS 3 Xrotation Yrotation Zrotation
			JOINT Spine1
			{
				OFFSET 0.000000 5.730043 0.104720
				CHANNELS 3 Xrotation Yrotation Zrotation
				JOINT Spine1_split
				{
					OFFSET 0.000000 5.730043 0.104720
					CHANNELS 3 Xrotation Yrotation Zrotation
					JOINT Spine2
					{
						OFFSET 0.000000 5.730043 0.104720
						CHANNELS 3 Xrotation Yrotation Zrotation
						JOINT Neck_virtual
						{
							OFFSET 0.000000 0.000000 0.000000
							CHANNELS 3 Xrotation Yrotation Zrotation
							JOINT Neck
							{
								OFFSET 0.000000 10.314075 0.188496
								CHANNELS 3 Xrotation Yrotation Zrotation
								JOINT Head
								{
									OFFSET 0.000000 7.643700 -2.377400
									CHANNELS 3 Xrotation Yrotation Zrotation
									JOINT HeadTop_End
									{
										OFFSET 0.000000 43.788605 -13.619600
										CHANNELS 3 Xrotation Yrotation Zrotation
										End Site
										{
											OFFSET 0 0 0
										}
									}
								}
							}
						}
						JOINT LeftShoulder_virtual
						{
							OFFSET 0.000000 0.000000 0.000000
							CHANNELS 3 Xrotation Yrotation Zrotation
							JOINT LeftShoulder
							{
								OFFSET 2.196100 4.412489 0.087492
								CHANNELS 3 Xrotation Yrotation Zrotation
								JOINT LeftShoulder_split
								{
									OFFSET 2.196100 4.412489 0.087492
									CHANNELS 3 Xrotation Yrotation Zrotation
									JOINT LeftArm
									{
										OFFSET 8.771219 -2.981674 -0.026999
										CHANNELS 3 Xrotation Yrotation Zrotation
										JOINT LeftForeArm
										{
											OFFSET 8.512804 0.000000 -0.000000
											CHANNELS 3 Xrotation Yrotation Zrotation
											JOINT LeftHand
											{
												OFFSET 18.484802 0.000000 -0.000000
												CHANNELS 3 Xrotation Yrotation Zrotation
												End Site
												{
													OFFSET 0 0 0
												}
											}
										}
									}
								}
							}
						}
						JOINT RightShoulder_virtual
						{
							OFFSET 0.000000 0.000000 0.000000
							CHANNELS 3 Xrotation Yrotation Zrotation
							JOINT RightShoulder
							{
								OFFSET -2.196100 4.412496 0.070690
								CHANNELS 3 Xrotation Yrotation Zrotation
								JOINT RightShoulder_split
								{
									OFFSET -2.196100 4.412496 0.070690
									CHANNELS 3 Xrotation Yrotation Zrotation
									JOINT RightArm
									{
										OFFSET -8.771282 -2.981682 -0.094208
										CHANNELS 3 Xrotation Yrotation Zrotation
										JOINT RightForeArm
										{
											OFFSET -8.494598 0.000000 0.000000
											CHANNELS 3 Xrotation Yrotation Zrotation
											JOINT RightHand
											{
												OFFSET -18.483803 0.000000 0.000001
												CHANNELS 3 Xrotation Yrotation Zrotation
												End Site
												{
													OFFSET 0 0 0
												}
											}
										}
									}
								}
							}
						}
					}
				}
			}
		}
	}
}
MOTION
Frames: 7
Frame Time: 0.03333333
2.032215 31.823605 0.568211 0.000000 0.000000 0.000000 147.079941 -87.286751 147.246092 -27.658129 35.190019 36.100736 27.189931 -9.898988 -0.128668 -11.469087 5.794800 -20.068627 0.874796 -0.259660 0.095752 0.000000 0.000000 0.000000 154.850142 -87.727810 155.545182 -19.764276 -14.783060 -21.632392 8.709863 13.819294 -3.285145 -0.160208 11.423817 20.787406 5.411224 0.179740 0.548404 0.000000 0.000000 0.000000 42.443410 -88.259875 42.961979 6.059290 -0.307286 -6.646782 1.524278 0.099425 -0.916753 0.818181 0.386734 0.225941 0.000000 0.000000 0.000000 1.980934 -0.403123 -1.325575 -10.333519 4.772850 3.764389 29.495089 75.768832 -32.923267 0.000000 0.000000 0.000000 3.227829 -0.483674 -0.853203 5.530898 -4.615518 10.940719 -2.046754 -3.501434 1.414005 -38.405402 6.188170 4.295750 -4.027424 -10.415460 -0.214010 0.000000 0.000000 0.000000 2.778151 -0.336829 -1.490264 -1.447088 0.433004 -18.533150 2.290012 1.630340 6.712508 -60.502362 54.171286 53.758093 179.757042 41.458084 -178.765899 0.000000 0.000000 0.000000 
2.034749 31.824974 0.577076 0.000000 0.000000 0.000000 147.356482 -87.293540 147.530720 -27.663941 35.180324 36.116305 27.183910 -9.914767 -0.126770 -11.467929 5.785309 -20.060506 0.886454 -0.257523 0.090785 0.000000 0.000000 0.000000 154.914114 -87.755459 155.619631 -19.733318 -14.746416 -21.647052 8.654000 13.820383 -3.284879 -0.156958 11.432436 20.835180 5.378860 0.174588 0.536538 0.000000 0.000000 0.000000 42.786696 -88.282285 43.329559 6.062885 -0.308630 -6.642053 1.521417 0.081556 -0.922633 0.791174 0.303424 0.218787 0.000000 0.000000 0.000000 1.988981 -0.416784 -1.324096 -10.314361 4.761631 3.762652 29.554369 75.834470 -33.010905 0.000000 0.000000 0.000000 3.230904 -0.500291 -0.850852 5.540904 -4.633936 10.975060 -1.982222 -3.480311 1.459284 -38.393637 6.211672 4.281283 -3.994216 -10.438671 -0.197621 0.000000 0.000000 0.000000 2.768666 -0.355025 -1.483980 -1.451060 0.386798 -18.566920 2.241479 1.641810 6.676616 -60.670986 54.244365 53.823827 179.740144 41.390216 -178.765858 0.000000 0.000000 0.000000 
2.035547 31.824831 0.585533 0.000000 0.000000 0.000000 147.543848 -87.309864 147.734178 -27.648266 35.144749 36.096324 27.170361 -9.936919 -0.123635 -11.453864 5.782287 -20.084002 0.906221 -0.254704 0.079657 0.000000 0.000000 0.000000 154.639403 -87.795839 155.353213 -19.692583 -14.737419 -21.678402 8.598293 13.788395 -3.289130 -0.211082 11.411466 20.852819 5.386890 0.175966 0.547825 0.000000 0.000000 0.000000 42.466267 -88.275127 43.034703 6.074766 -0.311075 -6.628576 1.528847 0.045390 -0.926696 0.777124 0.247529 0.229329 0.000000 0.000000 0.000000 2.003426 -0.451470 -1.323901 -10.269408 4.720364 3.782091 29.872420 75.951786 -33.383116 0.000000 0.000000 0.000000 3.244312 -0.539951 -0.849617 5.560715 -4.646366 11.038294 -1.932138 -3.477143 1.540862 -38.395762 6.322436 4.185002 -3.962761 -10.540624 -0.184012 0.000000 0.000000 0.000000 2.772275 -0.393852 -1.474471 -1.456101 0.325564 -18.626182 2.207467 1.626970 6.658144 -60.868829 54.343594 53.884346 179.717672 41.368352 -178.780352 0.000000 0.000000 0.000000 
2.034912 31.823206 0.591948 0.000000 0.000000 0.000000 147.683703 -87.325184 147.894264 -27.611123 35.094485 36.044028 27.149893 -9.957605 -0.123787 -11.427991 5.783188 -20.127995 0.923695 -0.251170 0.064947 0.000000 0.000000 0.000000 154.057703 -87.842052 154.781321 -19.659533 -14.755912 -21.730167 8.555854 13.735599 -3.293334 -0.290133 11.368484 20.854960 5.410144 0.184321 0.572877 0.000000 0.000000 0.000000 41.505656 -88.239412 42.096088 6.094927 -0.316548 -6.608766 1.544940 -0.011059 -0.928245 0.784811 0.221118 0.260425 0.000000 0.000000 0.000000 2.019331 -0.509496 -1.324547 -10.203318 4.652652 3.823574 30.428558 76.120498 -34.013119 0.000000 0.000000 0.000000 3.262146 -0.605757 -0.848890 5.589645 -4.649104 11.136746 -1.907929 -3.485994 1.628064 -38.423584 6.524123 4.022876 -3.938589 -10.696066 -0.170050 0.000000 0.000000 0.000000 2.784392 -0.455056 -1.461673 -1.463731 0.249981 -18.705708 2.181711 1.586218 6.655313 -61.053251 54.435819 53.944025 179.693261 41.400461 -178.806047 0.000000 0.000000 0.000000 
2.032935 31.820984 0.598677 0.000000 0.000000 0.000000 147.677856 -87.336113 147.907665 -27.560534 35.037364 35.970051 27.118247 -9.967622 -0.130087 -11.396096 5.783841 -20.174272 0.936276 -0.247376 0.050421 0.000000 0.000000 0.000000 153.159752 -87.892343 153.894571 -19.645118 -14.793387 -21.807496 8.535161 13.685846 -3.289872 -0.362353 11.318537 20.879992 5.408463 0.198542 0.600514 0.000000 0.000000 0.000000 40.030895 -88.183179 40.641091 6.121492 -0.326484 -6.583198 1.565729 -0.090762 -0.927300 0.797823 0.229397 0.277997 0.000000 0.000000 0.000000 2.029708 -0.592874 -1.325524 -10.120565 4.560615 3.887855 31.164948 76.327378 -34.830676 0.000000 0.000000 0.000000 3.280099 -0.700493 -0.849238 5.627731 -4.639761 11.273768 -1.903735 -3.513582 1.688876 -38.484219 6.802049 3.816891 -3.924254 -10.864858 -0.153873 0.000000 0.000000 0.000000 2.797213 -0.540009 -1.445713 -1.474595 0.159615 -18.802795 2.158367 1.536401 6.656560 -61.215803 54.484030 54.017989 179.674096 41.480436 -178.840007 0.000000 0.000000 0.000000 
2.029913 31.819534 0.603861 0.000000 0.000000 0.000000 147.359146 -87.348270 147.601945 -27.496644 34.976552 35.884270 27.076801 -9.961127 -0.142350 -11.363505 5.777362 -20.205177 0.948834 -0.244686 0.037759 0.000000 0.000000 0.000000 151.975001 -87.946335 152.721322 -19.644498 -14.836916 -21.904615 8.536189 13.656605 -3.278384 -0.405184 11.264800 20.943665 5.368511 0.216392 0.621069 0.000000 0.000000 0.000000 38.242885 -88.111865 38.870074 6.149288 -0.340611 -6.551450 1.585793 -0.197199 -0.925805 0.794618 0.270999 0.275535 0.000000 0.000000 0.000000 2.030391 -0.703409 -1.328194 -10.030076 4.446293 3.971214 32.018393 76.555171 -35.759978 0.000000 0.000000 0.000000 3.294414 -0.824467 -0.849855 5.675241 -4.617028 11.446016 -1.915767 -3.561169 1.727708 -38.578657 7.129757 3.581111 -3.918638 -11.013773 -0.134141 0.000000 0.000000 0.000000 2.803096 -0.650983 -1.426866 -1.490106 0.059909 -18.918780 2.140063 1.486749 6.659791 -61.358055 54.466244 54.129983 179.664288 41.586232 -178.873311 0.000000 0.000000 0.000000 
2.026426 31.820536 0.609894 0.000000 0.000000 0.000000 146.650568 -87.371548 146.898859 -27.428438 34.918936 35.800102 27.026855 -9.933788 -0.159359 -11.340553 5.755179 -20.211163 0.965692 -0.243381 0.029584 0.000000 0.000000 0.000000 150.531605 -88.006195 151.288390 -19.649331 -14.872855 -22.017593 8.544647 13.650426 -3.261292 -0.421286 11.194609 21.039908 5.315071 0.233342 0.633798 0.000000 0.000000 0.000000 36.208264 -88.025627 36.847330 6.175893 -0.357042 -6.510968 1.600498 -0.332366 -0.924493 0.782221 0.329612 0.266515 0.000000 0.000000 0.000000 2.020270 -0.840609 -1.333320 -9.934935 4.319253 4.066576 32.940517 76.794576 -36.746045 0.000000 0.000000 0.000000 3.303345 -0.977005 -0.849561 5.729768 -4.580862 11.649194 -1.934128 -3.587232 1.748006 -38.693858 7.472593 3.331691 -3.924093 -11.135421 -0.110423 0.000000 0.000000 0.000000 2.798489 -0.789386 -1.408176 -1.510444 -0.045313 -19.051793 2.129124 1.441460 6.654598 -61.499939 54.383008 54.283331 179.663755 41.694415 -178.898582 0.000000 0.000000 0.000000 
